<?xml version="1.0" encoding="utf-8"?>
<svg xmlns="http://www.w3.org/2000/svg" style="margin: auto; background: rgb(255, 255, 255) none repeat scroll 0% 0%; display: block; shape-rendering: auto;" width="214px" height="214px" viewBox="0 0 100 100" preserveAspectRatio="xMidYMid">
<g transform="rotate(0 50 50)">
  <rect x="48.5" y="36.5" rx="0.07" ry="0.07" width="3" height="7" fill="#fe5f1e">
    <animate attributeName="opacity" values="1;0" keyTimes="0;1" dur="1.0526315789473684s" begin="-0.9649122807017544s" repeatCount="indefinite" />
  </rect>
</g><g transform="rotate(30 50 50)">
  <rect x="48.5" y="36.5" rx="0.07" ry="0.07" width="3" height="7" fill="#fe5f1e">
    <animate attributeName="opacity" values="1;0" keyTimes="0;1" dur="1.0526315789473684s" begin="-0.8771929824561403s" repeatCount="indefinite" />
  </rect>
</g><g transform="rotate(60 50 50)">
  <rect x="48.5" y="36.5" rx="0.07" ry="0.07" width="3" height="7" fill="#fe5f1e">
    <animate attributeName="opacity" values="1;0" keyTimes="0;1" dur="1.0526315789473684s" begin="-0.7894736842105263s" repeatCount="indefinite" />
  </rect>
</g><g transform="rotate(90 50 50)">
  <rect x="48.5" y="36.5" rx="0.07" ry="0.07" width="3" height="7" fill="#fe5f1e">
    <animate attributeName="opacity" values="1;0" keyTimes="0;1" dur="1.0526315789473684s" begin="-0.7017543859649122s" repeatCount="indefinite" />
  </rect>
</g><g transform="rotate(120 50 50)">
  <rect x="48.5" y="36.5" rx="0.07" ry="0.07" width="3" height="7" fill="#fe5f1e">
    <animate attributeName="opacity" values="1;0" keyTimes="0;1" dur="1.0526315789473684s" begin="-0.6140350877192983s" repeatCount="indefinite" />
  </rect>
</g><g transform="rotate(150 50 50)">
  <rect x="48.5" y="36.5" rx="0.07" ry="0.07" width="3" height="7" fill="#fe5f1e">
    <animate attributeName="opacity" values="1;0" keyTimes="0;1" dur="1.0526315789473684s" begin="-0.5263157894736842s" repeatCount="indefinite" />
  </rect>
</g><g transform="rotate(180 50 50)">
  <rect x="48.5" y="36.5" rx="0.07" ry="0.07" width="3" height="7" fill="#fe5f1e">
    <animate attributeName="opacity" values="1;0" keyTimes="0;1" dur="1.0526315789473684s" begin="-0.43859649122807015s" repeatCount="indefinite" />
  </rect>
</g><g transform="rotate(210 50 50)">
  <rect x="48.5" y="36.5" rx="0.07" ry="0.07" width="3" height="7" fill="#fe5f1e">
    <animate attributeName="opacity" values="1;0" keyTimes="0;1" dur="1.0526315789473684s" begin="-0.3508771929824561s" repeatCount="indefinite" />
  </rect>
</g><g transform="rotate(240 50 50)">
  <rect x="48.5" y="36.5" rx="0.07" ry="0.07" width="3" height="7" fill="#fe5f1e">
    <animate attributeName="opacity" values="1;0" keyTimes="0;1" dur="1.0526315789473684s" begin="-0.2631578947368421s" repeatCount="indefinite" />
  </rect>
</g><g transform="rotate(270 50 50)">
  <rect x="48.5" y="36.5" rx="0.07" ry="0.07" width="3" height="7" fill="#fe5f1e">
    <animate attributeName="opacity" values="1;0" keyTimes="0;1" dur="1.0526315789473684s" begin="-0.17543859649122806s" repeatCount="indefinite" />
  </rect>
</g><g transform="rotate(300 50 50)">
  <rect x="48.5" y="36.5" rx="0.07" ry="0.07" width="3" height="7" fill="#fe5f1e">
    <animate attributeName="opacity" values="1;0" keyTimes="0;1" dur="1.0526315789473684s" begin="-0.08771929824561403s" repeatCount="indefinite" />
  </rect>
</g><g transform="rotate(330 50 50)">
  <rect x="48.5" y="36.5" rx="0.07" ry="0.07" width="3" height="7" fill="#fe5f1e">
    <animate attributeName="opacity" values="1;0" keyTimes="0;1" dur="1.0526315789473684s" begin="0s" repeatCount="indefinite" />
  </rect>
</g>
<!-- [ldio] generated by https://loading.io/ --></svg>